<svg width="39" height="22" xmlns="http://www.w3.org/2000/svg" xmlns:xlink="http://www.w3.org/1999/xlink" xml:space="preserve" overflow="hidden"><g transform="translate(-1896 -312)"><path d="M1931.68 313.971 1915.83 329.36 1899.98 313.971C1899.32 313.343 1898.66 313.343 1898 313.971 1897.33 314.599 1897.33 315.227 1898 315.855L1914.51 331.872C1914.51 331.872 1914.51 331.872 1914.51 332.186 1914.84 332.5 1915.17 332.5 1915.5 332.5 1915.83 332.5 1916.16 332.5 1916.49 332.186 1916.49 332.186 1916.49 332.186 1916.49 331.872L1933 315.855C1933.67 315.227 1933.67 314.599 1933 313.971 1933 313.657 1932.01 313.657 1931.68 313.971Z" stroke="#000000" stroke-width="3.22096" stroke-miterlimit="8" fill="none" fill-rule="evenodd"/></g></svg>